# xmcd
#
# Track frame offsets: 
#        150
#        13363
#        29595
#
# Disc length: 570 seconds
#
# Revision: 0
# Processed by: cddbd v1.5.2PL0 Copyright (c) Steve Scherf et al.
# Submitted via: ExactAudioCopy v0.95b4
#
DISCID=22023803
DTITLE=The Jive Aces - White Hot Christmas
DYEAR=2003
DGENRE=Swing
TTITLE0=White Hot Christmas
TTITLE1=Clear Body Clear Mind
TTITLE2=Imagination (or Something Else?)
EXTD=
EXTT0=
EXTT1=
EXTT2=
PLAYORDER=
